# xmcd
#
# Track frame offsets: 
#        150
#        47930
#        61409
#        77980
#        88173
#        103458
#        107848
#        122538
#        142059
#        159887
#        176845
#        199584
#        208524
#        219799
#        226038
#        238074
#        240352
#        254526
#        272545
#        286139
#        306168
#        317058
#        319894
#        334632
#        344223
#
# Disc length: 4728 seconds
#
# Revision: 0
# Processed by: cddbd v1.5.2PL0 Copyright (c) Steve Scherf et al.
# Submitted via: ExactAudioCopy v0.95b4
#
DISCID=75127619
DTITLE=The Beatles  - AB  Road - Complete Purple Chick Set v1.1 Jan.25
DTITLE=Various Artist - D4  FLAC
DYEAR=1900
DGENRE=
TTITLE0=For You Blue 25.39
TTITLE1=For You Blue 25.40
TTITLE2=For You Blue 25.41
TTITLE3=For You Blue 25.42
TTITLE4=For You Blue 25.43
TTITLE5=Sorry I Left You Bleeding 25.44
TTITLE6=For You Blue 25.45
TTITLE7=For You Blue 25.46
TTITLE8=For You Blue 25.47
TTITLE9=For You Blue 25.46P
TTITLE10=For You Blue 25.47P
TTITLE11=For You Blue 25.48
TTITLE12=For You Blue 25.49
TTITLE13=For You Blue 25.50
TTITLE14=For You Blue 25.51
TTITLE15=For You Blue 25.52
TTITLE16=For You Blue 25.53
TTITLE17=For You Blue 25.53P
TTITLE18=For You Blue 25.46P
TTITLE19=For You Blue 25.46P
TTITLE20=For You Blue 25.53P
TTITLE21=Take This Hammer 25.54
TTITLE22=For You Blue 25.46P
TTITLE23=For You Blue 25.55
TTITLE24=Let It Be 25.56
EXTD=
EXTT0=
EXTT1=
EXTT2=
EXTT3=
EXTT4=
EXTT5=
EXTT6=
EXTT7=
EXTT8=
EXTT9=
EXTT10=
EXTT11=
EXTT12=
EXTT13=
EXTT14=
EXTT15=
EXTT16=
EXTT17=
EXTT18=
EXTT19=
EXTT20=
EXTT21=
EXTT22=
EXTT23=
EXTT24=
PLAYORDER=
